<svg xmlns="http://www.w3.org/2000/svg" version="1.1" xmlnsXlink="http://www.w3.org/1999/xlink" xmlnsSvgjs="http://svgjs.dev/svgjs" width="1500" height="1500" viewBox="0 0 1500 1500"><g transform="matrix(1,0,0,1,-0.323615160350073,-0.3236151603499593)"><svg viewBox="0 0 343 343" data-background-color="#293040" preserveAspectRatio="xMidYMid meet" height="1500" width="1500" xmlns="http://www.w3.org/2000/svg" xmlnsXlink="http://www.w3.org/1999/xlink"><g id="tight-bounds" transform="matrix(1,0,0,1,0.0740000000000407,0.07400000000001228)"><svg viewBox="0 0 342.85155851775386 342.85155851775386" height="342.85155851775386" width="342.85155851775386"><g><svg></svg></g><g><svg viewBox="0 0 342.85155851775386 342.85155851775386" height="342.85155851775386" width="342.85155851775386"><g><path d="M0 171.426c0-94.676 76.75-171.426 171.426-171.426 94.676 0 171.426 76.75 171.426 171.426 0 94.676-76.75 171.426-171.426 171.426-94.676 0-171.426-76.75-171.426-171.426zM171.426 338.849c92.465 0 167.423-74.958 167.423-167.423 0-92.465-74.958-167.423-167.423-167.423-92.465 0-167.423 74.958-167.423 167.423 0 92.465 74.958 167.423 167.423 167.423z" data-fill-palette-color="tertiary" fill="#d5b263" stroke="transparent"></path><ellipse rx="164.56874808852186" ry="164.56874808852186" cx="171.42577925887693" cy="171.42577925887693" fill="#d5b263" stroke="transparent" stroke-width="0" fill-opacity="1" data-fill-palette-color="tertiary"></ellipse></g><g transform="matrix(1,0,0,1,64.84655864529837,113.31938378701905)"><svg viewBox="0 0 213.1584412271571 116.21279094371576" height="116.21279094371576" width="213.1584412271571"><g><svg viewBox="0 0 213.1584412271571 116.21279094371576" height="116.21279094371576" width="213.1584412271571"><g><svg viewBox="0 0 213.1584412271571 116.21279094371576" height="116.21279094371576" width="213.1584412271571"><g transform="matrix(1,0,0,1,0,71.82416702916333)"><svg viewBox="0 0 213.1584412271571 44.388623914552426" height="44.388623914552426" width="213.1584412271571"><g id="textblocktransform"><svg viewBox="0 0 213.1584412271571 44.388623914552426" height="44.388623914552426" width="213.1584412271571" id="textblock"><g><svg viewBox="0 0 213.1584412271571 44.388623914552426" height="44.388623914552426" width="213.1584412271571"><g transform="matrix(1,0,0,1,0,0)"><svg width="213.1584412271571" viewBox="4.08 -39.11 190.14 39.6" height="44.388623914552426" data-palette-color="#293040"><path d="M4.08 0L4.08-39.11 9.99-39.11 9.99 0 4.08 0ZM28.22 0L21.07 0 11.43-13.65 21.48-25.81 27.47-25.81 17.31-14.38 28.22 0ZM47.43-3.81L47.43-3.81Q46.8-3.27 45.91-2.53 45.02-1.78 43.93-1.11 42.84-0.44 41.56 0.02 40.28 0.49 38.86 0.49L38.86 0.49Q37.42 0.49 36.19-0.04 34.96-0.56 34.04-1.5 33.13-2.44 32.6-3.75 32.08-5.05 32.08-6.64L32.08-6.64Q32.08-8.3 32.75-9.89 33.42-11.47 35-12.72 36.57-13.96 39.16-14.73 41.75-15.5 45.55-15.5L45.55-15.5 47.34-15.5 47.34-17.5Q47.34-18.58 46.97-19.43 46.6-20.29 45.94-20.9 45.29-21.51 44.37-21.83 43.45-22.14 42.33-22.14L42.33-22.14Q41.45-22.14 40.45-21.94 39.45-21.73 38.47-21.36 37.5-21 36.57-20.5 35.64-20 34.91-19.41L34.91-19.41 34.47-19.65 33.35-23.75Q36.3-25.29 38.84-25.83 41.38-26.37 43.6-26.37L43.6-26.37Q45.9-26.37 47.69-25.9 49.48-25.44 50.73-24.48 51.98-23.51 52.62-22.03 53.27-20.56 53.27-18.53L53.27-18.53 53.27-6.57Q53.27-6.2 53.33-5.76 53.39-5.32 53.57-4.93 53.76-4.54 54.11-4.27 54.47-4 55.05-4L55.05-4Q55.39-4 55.88-4.1 56.37-4.2 56.86-4.42L56.86-4.42 56.86-1.49Q55.54-0.59 54.23-0.05 52.93 0.49 51.68 0.49L51.68 0.49Q50.71 0.49 50 0.12 49.29-0.24 48.8-0.84 48.31-1.44 47.98-2.21 47.65-2.98 47.43-3.81ZM47.34-6.96L47.34-12.62 45.8-12.62Q43.26-12.62 41.71-12.27 40.16-11.91 39.3-11.29 38.45-10.67 38.17-9.85 37.89-9.03 37.89-8.08L37.89-8.08Q37.89-7.08 38.18-6.32 38.47-5.57 38.97-5.05 39.48-4.54 40.16-4.27 40.84-4 41.62-4L41.62-4Q42.21-4 42.84-4.14 43.48-4.27 44.17-4.61 44.87-4.96 45.65-5.52 46.43-6.08 47.34-6.96L47.34-6.96ZM80.83-5.32L80.83-2.37Q79.1-0.98 76.97-0.24 74.85 0.49 72.41 0.49L72.41 0.49Q69.67 0.49 67.48-0.43 65.28-1.34 63.74-2.97 62.2-4.59 61.37-6.85 60.54-9.11 60.54-11.82L60.54-11.82Q60.54-15.01 61.66-17.69 62.79-20.36 64.73-22.29 66.67-24.22 69.31-25.29 71.94-26.37 74.97-26.37L74.97-26.37Q75.63-26.37 76.39-26.31 77.14-26.25 77.94-26.12 78.73-26 79.5-25.79 80.27-25.59 80.93-25.29L80.93-25.29 79.88-20.75 79.37-20.51Q78.93-20.83 78.33-21.13 77.73-21.44 77.05-21.66 76.36-21.88 75.63-22.01 74.9-22.14 74.19-22.14L74.19-22.14Q72.63-22.14 71.27-21.53 69.92-20.92 68.9-19.75 67.89-18.58 67.3-16.88 66.72-15.19 66.72-13.04L66.72-13.04Q66.72-10.79 67.35-9.11 67.99-7.42 69.11-6.29 70.23-5.15 71.77-4.58 73.31-4 75.12-4L75.12-4Q76.24-4 77.68-4.27 79.12-4.54 80.83-5.32L80.83-5.32ZM86.32 0L86.32-1.86 97.28-18.14 99.72-21.34 99.72-21.83 95.13-21.66 87-21.66 88.05-25.88 107.07-25.88 107.07-24.02 96.18-7.96 93.57-4.49 93.57-4.03 97.89-4.22 107.78-4.22 106.73 0 86.32 0ZM124.84 0.49L124.84 0.49Q121.79 0.49 119.46-0.54 117.13-1.56 115.54-3.31 113.95-5.05 113.14-7.35 112.32-9.64 112.32-12.21L112.32-12.21Q112.32-15.16 113.37-17.74 114.42-20.31 116.31-22.23 118.2-24.15 120.82-25.26 123.43-26.37 126.55-26.37L126.55-26.37Q129.6-26.37 131.95-25.34 134.29-24.32 135.88-22.56 137.47-20.8 138.28-18.49 139.1-16.19 139.1-13.62L139.1-13.62Q139.1-10.64 138.04-8.07 136.98-5.49 135.07-3.59 133.17-1.68 130.56-0.6 127.94 0.49 124.84 0.49ZM125.87-3.74L125.87-3.74Q127.43-3.74 128.73-4.38 130.02-5.03 130.95-6.19 131.87-7.35 132.39-8.96 132.9-10.57 132.9-12.52L132.9-12.52Q132.9-14.43 132.4-16.16 131.9-17.9 130.95-19.23 129.99-20.56 128.63-21.35 127.26-22.14 125.53-22.14L125.53-22.14Q123.94-22.14 122.65-21.48 121.35-20.83 120.44-19.65 119.52-18.48 119.01-16.86 118.5-15.23 118.5-13.31L118.5-13.31Q118.5-11.38 119-9.64 119.5-7.91 120.45-6.59 121.4-5.27 122.77-4.5 124.14-3.74 125.87-3.74ZM145.69 0L145.69-25.88 150.48-25.88 151.31-18.16Q151.65-18.8 152.01-19.47 152.38-20.14 152.75-20.76 153.11-21.39 153.43-21.9 153.75-22.41 153.97-22.75L153.97-22.75Q154.48-23.51 155.13-24.18 155.77-24.85 156.53-25.33 157.29-25.81 158.17-26.09 159.05-26.37 160.07-26.37L160.07-26.37Q160.78-26.37 161.49-26.2 162.19-26.03 162.68-25.66L162.68-25.66 162.05-20.21Q161.61-20.34 161.02-20.37 160.44-20.41 159.97-20.41L159.97-20.41Q158.41-20.41 157.19-19.96 155.97-19.51 154.98-18.71 153.99-17.92 153.17-16.85 152.36-15.77 151.6-14.53L151.6-14.53 151.6 0 145.69 0ZM186.75-19.78L186.75-19.78Q188.22-19.36 189.56-18.63 190.9-17.9 191.94-16.85 192.98-15.8 193.6-14.44 194.22-13.09 194.22-11.43L194.22-11.43Q194.22-9.45 193.26-7.42 192.29-5.4 190.41-3.75 188.53-2.1 185.75-1.05 182.97 0 179.33 0L179.33 0 169.17 0 169.17-35.77 180.33-35.77Q183.41-35.77 185.7-35.11 188-34.45 189.54-33.37 191.07-32.3 191.84-30.88 192.61-29.47 192.61-27.98L192.61-27.98Q192.61-26.71 192.12-25.55 191.64-24.39 190.83-23.35 190.02-22.31 188.96-21.41 187.9-20.51 186.75-19.78ZM175.23-16.5L175.23-4.3 179.92-4.3Q182.09-4.3 183.62-4.87 185.14-5.44 186.09-6.36 187.05-7.28 187.47-8.44 187.9-9.59 187.9-10.79L187.9-10.79Q187.9-12.28 187.31-13.35 186.73-14.43 185.65-15.12 184.58-15.82 183.09-16.16 181.6-16.5 179.79-16.5L179.79-16.5 175.23-16.5ZM175.23-20.68L183.19-20.68Q184.73-21.75 185.67-23.19 186.61-24.63 186.61-26.39L186.61-26.39Q186.61-28.74 184.76-30.1 182.92-31.47 179.53-31.47L179.53-31.47 175.23-31.47 175.23-20.68Z" opacity="1" transform="matrix(1,0,0,1,0,0)" fill="#293040" class="wordmark-text-0" data-fill-palette-color="quaternary" id="text-0"></path></svg></g></svg></g></svg></g></svg></g><g transform="matrix(1,0,0,1,75.90668148862284,0)"><svg viewBox="0 0 61.34507824991145 61.34507824991145" height="61.34507824991145" width="61.34507824991145"><g><svg xmlns="http://www.w3.org/2000/svg" xmlns:xlink="http://www.w3.org/1999/xlink" version="1.1" x="0" y="0" viewBox="5 5.5 90 90" enable-background="new 0 0 100 100" xml:space="preserve" height="61.34507824991145" width="61.34507824991145" class="icon-icon-0" data-fill-palette-color="quaternary" id="icon-0"><path d="M50 5.5c-24.85 0-45 20.15-45 45 0 24.85 20.15 45 45 45 24.85 0 45-20.15 45-45C95 25.65 74.85 5.5 50 5.5zM50 89c-21.5 0-39-17.5-39-39 0-15.25 8.8-28.49 21.59-34.89C25.1 22.85 20.5 33.38 20.5 45c0 22.42 17.15 40.82 39.04 42.82C56.49 88.59 53.29 89 50 89zM75.82 39.68c-0.33 0.16-0.67 0.23-1 0.23-0.851 0-1.67-0.48-2.07-1.3-2.13-4.43-5.49-8.13-9.71-10.68-1.08-0.65-1.43-2.06-0.771-3.15 0.65-1.08 2.061-1.43 3.15-0.77 4.98 3.01 8.94 7.37 11.47 12.61C77.44 37.76 76.96 39.13 75.82 39.68z" fill="#293040" data-fill-palette-color="quaternary"></path></svg></g></svg></g><g></g></svg></g></svg></g></svg></g></svg></g><defs></defs></svg><rect width="342.85155851775386" height="342.85155851775386" fill="none" stroke="none" visibility="hidden"></rect></g></svg></g></svg>